 http://www.imdb.com/title/tt0457510/

Source: Nacho Libre (2006) BDRip 720p multi HighCode-BTNET ( Thanks! ).

Subs: Arabian, Bulgarian, Croatian, Czech, Danish, Dutch, English, Finnish, Greek, Hebrew, Hungarian, Indonesian, Italian, Persian, Polish, Portuguese, Romanian, Slovenian, Spanish, Swedish, Turkish and Vietnamese. (Extracted from source).

Sample and Screens included.

General
Complete name                    : Nacho Libre-720p MP4 AAC x264 BRRip 2006-CC.mp4
Format                           : MPEG-4
Format profile                   : Base Media
Codec ID                         : isom
File size                        : 1.98 GiB
Duration                         : 1h 32mn
Overall bit rate                 : 3 078 Kbps
Encoded date                     : UTC 2012-07-18 13:24:26

Video
ID                               : 1
Format                           : AVC
Format/Info                      : Advanced Video Codec
Format profile                   : High@L3.1
Format settings, CABAC           : Yes
Format settings, ReFrames        : 5 frames
Codec ID                         : avc1
Codec ID/Info                    : Advanced Video Coding
Duration                         : 1h 32mn
Bit rate mode                    : Variable
Bit rate                         : 2 690 Kbps
Nominal bit rate                 : 2 752 Kbps
Maximum bit rate                 : 9 396 Kbps
Width                            : 1 280 pixels
Height                           : 720 pixels
Display aspect ratio             : 16:9
Frame rate mode                  : Variable
Frame rate                       : 23.976 fps
Minimum frame rate               : 12.048 fps
Maximum frame rate               : 24.390 fps
Resolution                       : 24 bits
Colorimetry                      : 4:2:0
Scan type                        : Progressive
Bits/(Pixel*Frame)               : 0.122
Stream size                      : 1.73 GiB (87%)
Writing library                  : x264 core 112

Audio
ID                               : 2
Format                           : AAC
Format/Info                      : Advanced Audio Codec
Format version                   : Version 4
Format profile                   : LC
Format settings, SBR             : No
Codec ID                         : 40
Duration                         : 1h 32mn
Bit rate mode                    : Variable
Bit rate                         : 384 Kbps
Maximum bit rate                 : 639 Kbps
Channel(s)                       : 6 channels
Channel positions                : Front: L C R, Rear: L R, LFE
Sampling rate                    : 48.0 KHz
Resolution                       : 16 bits
Stream size                      : 253 MiB (12%)
Language                         : English

Enjoy...

Requested by Alorati.